<svg xmlns="http://www.w3.org/2000/svg" xmlns:xlink="http://www.w3.org/1999/xlink" x="0px" y="0px" viewBox="0 0 89.9 89.5" style="enable-background:new 0 0 89.9 89.5;" xml:space="preserve">
<path d="M86.9,89.6c-0.8,0-1.6-0.3-2.1-0.9L64.7,68.7l-1.4,1.1c-6.8,5.3-15.3,8.3-24,8.3s-17.2-2.9-24-8.3
	C-1.5,56.6-4.5,32.1,8.7,15.2C16.1,5.7,27.3,0.3,39.3,0.3c8.8,0,17,2.9,24,8.3C80.2,21.7,83.2,46.2,70,63.1l-1.1,1.4l20.1,20.1
	c0.6,0.5,0.9,1.2,0.9,2c0,0.8-0.3,1.6-0.9,2.2C88.4,89.3,87.7,89.6,86.9,89.6L86.9,89.6z M39.4,6.3C21.3,6.3,6.5,21,6.5,39.2
	c0,18.1,14.8,32.9,32.9,32.9c18,0,32.8-14.8,32.9-32.9C72.3,21,57.6,6.3,39.4,6.3z"></path>
</svg>